<svg id="eEDw0okzUHq1" xmlns="http://www.w3.org/2000/svg" xmlns:xlink="http://www.w3.org/1999/xlink" viewBox="0 0 24 24" shape-rendering="geometricPrecision" text-rendering="geometricPrecision" project-id="1466c886b70d40f4885f969d50135dab" export-id="373f46e86ab34c44b89f62c6964c35a9" cached="false"><path d="M3,4c0-1.10457.89543-2,2-2h12c1.1046,0,2,.89543,2,2v1.09005c.3888.06131.8652.16641,1.3511.34862.5924.22214,1.2526.57901,1.7713,1.16259C22.6595,7.20549,23,8.00415,23,9s-.3405,1.7945-.8776,2.3987c-.5187.5836-1.1789.9405-1.7713,1.1626-.5199.195-1.0289.3017-1.4314.3609l-.0011.0074c-.0791.5273-.2391,1.2473-.5692,1.9808-.3306.7347-.8466,1.5149-1.6526,2.1119C15.8791,17.628,14.8231,18,13.5,18h-5c-1.32309,0-2.37913-.372-3.19679-.9777-.80598-.597-1.32201-1.3772-1.65263-2.1119C3.24764,14.015,3.00268,12.9895,3,12.002L3,4Zm16,6.8763v-3.75265c.2094.04518.4312.10606.6489.18768.4076.15286.7474.35849.9787.61866C20.8405,8.16952,21,8.49585,21,9s-.1595.83049-.3724,1.07c-.2313.2602-.5711.4658-.9787.6187-.2177.0816-.4395.1425-.6489.1876ZM5,11.9973c.00914.7099.18467,1.4484.47442,2.0923.23188.5153.55961.9851,1.01924,1.3256C6.94163,15.747,7.57309,16,8.5,16h5c.9269,0,1.5584-.253,2.0063-.5848.4597-.3405.7874-.8103,1.0193-1.3256.288-.64.4719-1.3849.4744-2.0922L17,4L5,4v7.9973Z" clip-rule="evenodd" fill="#0f0f0f" fill-rule="evenodd"/><path d="M23,21c0-.5523-.4477-1-1-1h-20c-.55228,0-1,.4477-1,1s.44772,1,1,1h20c.5523,0,1-.4477,1-1Z" fill="#0f0f0f"/><rect width="1.667975" height="6.825722" rx="0.6" ry="0.6" transform="matrix(1 0 0 1.133427 10.332026 4.71891)" stroke-width="0" stroke-linecap="round" stroke-linejoin="round"/><ellipse rx="0.833987" ry="0.806063" transform="translate(11.166021 13.900783)" stroke-width="0"/></svg>
